<svg width="21" height="21" viewBox="0 0 21 21" fill="none" xmlns="http://www.w3.org/2000/svg">
<path fill-rule="evenodd" clip-rule="evenodd" d="M12.3591 3.3038C14.1151 1.55722 16.9409 1.56662 18.6855 3.32486C20.4382 5.09135 20.4382 7.95538 18.6855 9.72184L10.8092 17.6597L10.4715 18L10.1325 17.661L7.07522 14.6037L7.75057 13.9178L7.78215 13.9494L13.8304 7.85379L14.5084 8.53708L8.46278 14.63L10.4689 16.6361L18.0075 9.03858C19.3858 7.64947 19.3858 5.39727 18.0075 4.00816C16.6355 2.62553 14.4135 2.61812 13.0326 3.99159L11.147 5.86699L10.8083 6.20884L5.12604 11.9355L4.78705 12.2771L4.44806 11.9355L2.31723 9.78803C0.560923 8.01793 0.560921 5.14811 2.31723 3.37807C4.07355 1.60801 6.92109 1.60801 8.67741 3.37807L10.469 5.18367L12.3591 3.3038ZM2.99522 4.06136C1.61335 5.45404 1.61335 7.71202 2.99522 9.10465L4.78705 10.9105L9.79125 5.8672L7.99942 4.06136C6.61755 2.66867 4.3771 2.66868 2.99522 4.06136Z" fill="#333333"/>
</svg>
