<svg width="40" height="40" viewBox="0 0 40 40" fill="none" xmlns="http://www.w3.org/2000/svg">
<mask id="mask0_13_2034" style="mask-type:alpha" maskUnits="userSpaceOnUse" x="0" y="0" width="40" height="40">
<rect width="40" height="40" fill="#D9D9D9"/>
</mask>
<g mask="url(#mask0_13_2034)">
<path d="M20.0003 37.3718L14.3678 31.7222H25.6499L20.0003 37.3718ZM6.77408 27.5002C6.05769 27.5002 5.44408 27.2447 4.93324 26.7339C4.42241 26.2231 4.16699 25.6095 4.16699 24.8931V8.44058C4.16699 7.72419 4.42241 7.11058 4.93324 6.59975C5.44408 6.08891 6.05769 5.8335 6.77408 5.8335H33.2266C33.943 5.8335 34.5566 6.08891 35.0674 6.59975C35.5782 7.11058 35.8337 7.72419 35.8337 8.44058V24.8931C35.8337 25.6095 35.5782 26.2231 35.0674 26.7339C34.5566 27.2447 33.943 27.5002 33.2266 27.5002H6.77408ZM6.77408 25.406H33.2266C33.3549 25.406 33.4725 25.3527 33.5795 25.246C33.6862 25.1391 33.7395 25.0214 33.7395 24.8931V8.44058C33.7395 8.31225 33.6862 8.19461 33.5795 8.08766C33.4725 7.981 33.3549 7.92766 33.2266 7.92766H6.77408C6.64574 7.92766 6.5281 7.981 6.42116 8.08766C6.31449 8.19461 6.26116 8.31225 6.26116 8.44058V24.8931C6.26116 25.0214 6.31449 25.1391 6.42116 25.246C6.5281 25.3527 6.64574 25.406 6.77408 25.406ZM13.6049 23.0343H26.4128V20.4918H13.6049V23.0343ZM8.46408 17.9381H11.0066V15.3956H8.46408V17.9381ZM13.6049 17.9381H16.1478V15.3956H13.6049V17.9381ZM18.7291 17.9381H21.2716V15.3956H18.7291V17.9381ZM23.8699 17.9381H26.4128V15.3956H23.8699V17.9381ZM28.9941 17.9381H31.5366V15.3956H28.9941V17.9381ZM8.46408 12.8314H11.0066V10.2885H8.46408V12.8314ZM13.6049 12.8314H16.1478V10.2885H13.6049V12.8314ZM18.7291 12.8314H21.2716V10.2885H18.7291V12.8314ZM23.8699 12.8314H26.4128V10.2885H23.8699V12.8314ZM28.9941 12.8314H31.5366V10.2885H28.9941V12.8314Z" fill="#959595"/>
</g>
</svg>
