<svg width="24" height="25" viewBox="0 0 24 25" fill="none" xmlns="http://www.w3.org/2000/svg">
<mask id="mask0_14_917" style="mask-type:alpha" maskUnits="userSpaceOnUse" x="0" y="0" width="24" height="25">
<rect y="0.364258" width="24" height="24" fill="#D9D9D9"/>
</mask>
<g mask="url(#mask0_14_917)">
<path d="M15.773 13.3373L14.65 12.2143C14.8 11.3862 14.5638 10.6416 13.9413 9.98057C13.3189 9.31974 12.5552 9.06432 11.65 9.21432L10.527 8.09132C10.7527 7.98999 10.9841 7.91399 11.2213 7.86332C11.4584 7.81266 11.718 7.78732 12 7.78732C13.1347 7.78732 14.0978 8.18316 14.8895 8.97482C15.6812 9.76649 16.077 10.7297 16.077 11.8643C16.077 12.1463 16.0517 12.4092 16.001 12.6528C15.9503 12.8963 15.8743 13.1245 15.773 13.3373ZM18.9538 16.4488L17.85 15.4143C18.4833 14.931 19.0458 14.4018 19.5375 13.8268C20.0292 13.2518 20.45 12.5977 20.8 11.8643C19.9667 10.181 18.7708 8.84349 17.2125 7.85182C15.6542 6.86016 13.9167 6.36432 12 6.36432C11.5167 6.36432 11.0417 6.39766 10.575 6.46432C10.1083 6.53099 9.65001 6.63099 9.20001 6.76432L8.03476 5.59907C8.66676 5.34774 9.31226 5.16249 9.97126 5.04332C10.6303 4.92399 11.3065 4.86432 12 4.86432C14.3435 4.86432 16.4569 5.51049 18.3403 6.80282C20.2236 8.09515 21.5973 9.78232 22.4615 11.8643C22.091 12.7578 21.6125 13.5918 21.026 14.3663C20.4393 15.1407 19.7486 15.8348 18.9538 16.4488ZM19.7615 22.2336L15.7155 18.2181C15.2027 18.4079 14.6343 18.5631 14.0105 18.6836C13.3868 18.8041 12.7167 18.8643 12 18.8643C9.65001 18.8643 7.5366 18.2182 5.65976 16.9258C3.78276 15.6335 2.40901 13.9463 1.53851 11.8643C1.90768 10.981 2.3846 10.157 2.96926 9.39232C3.55393 8.62749 4.19751 7.96432 4.90001 7.40282L2.13076 4.60282L3.18476 3.54907L20.8153 21.1796L19.7615 22.2336ZM5.95401 8.45657C5.42568 8.87707 4.91185 9.38257 4.41251 9.97307C3.91318 10.5634 3.50901 11.1938 3.20001 11.8643C4.03335 13.5477 5.22918 14.8852 6.78751 15.8768C8.34585 16.8685 10.0833 17.3643 12 17.3643C12.4552 17.3643 12.9084 17.3258 13.3598 17.2488C13.8109 17.172 14.1936 17.0926 14.5078 17.0106L13.2423 15.7143C13.0718 15.7835 12.8743 15.8386 12.65 15.8796C12.4257 15.9207 12.209 15.9413 12 15.9413C10.8653 15.9413 9.90218 15.5455 9.11051 14.7538C8.31885 13.9622 7.92301 12.999 7.92301 11.8643C7.92301 11.6618 7.9436 11.45 7.98476 11.2288C8.02576 11.0077 8.08085 10.8054 8.15001 10.6221L5.95401 8.45657Z" fill="#111111"/>
</g>
</svg>
