<svg width="48" height="68" viewBox="0 0 48 68" fill="none" xmlns="http://www.w3.org/2000/svg">
<path fill-rule="evenodd" clip-rule="evenodd" d="M29.6485 37.6841L29.8579 37.5758C31.1333 36.9309 32.3607 36.5747 33.3065 36.5747C34.0693 36.5747 34.6541 36.7985 35.044 37.2389C35.4844 37.7347 35.6504 38.4855 35.5325 39.4722C34.8105 45.5752 28.7701 51.3437 23.4613 54.1233C17.3318 57.3312 10.4948 58.0387 9.12546 58.1518C9.04605 58.1566 8.96663 58.1614 8.87759 58.1614C8.99551 57.9737 17.9912 43.4334 29.6461 37.6817M43.657 2.96005C41.4622 10.1604 36.0547 14.7762 31.9179 17.7363C30.8205 18.5208 31.9034 19.108 31.9323 20.2198C31.9684 21.6036 29.48 23.3218 25.6873 27.4756C32.931 13.4333 43.657 2.96005 43.657 2.96005ZM7.95348 60.0386C7.96551 60.0386 8.2182 60.0313 8.66341 60.0073C10.8943 59.8749 18.0513 59.2179 25.4467 55.9715C29.3381 54.2628 40.4106 47.8133 40.4106 39.1473C40.4106 35.8648 38.418 33.9853 35.0271 33.9853C29.8627 33.9853 23.6177 38.1582 16.6411 45.4308C16.463 45.657 16.1357 45.4982 17.0358 44.0302C18.7781 41.1881 22.7321 33.9323 31.386 25.3891C36.4446 20.3955 33.8696 18.4823 33.8696 18.4823C33.8696 18.4823 38.9787 16.1311 42.8243 11.1134C45.1274 8.11006 48.0466 2.21883 46.7735 0.613665C45.7194 -0.717156 43.5608 -0.0433228 38.7332 4.22349C32.7289 9.52511 23.6297 24.9727 18.6891 34.238C17.4714 36.5242 10.3696 48.8409 5.3159 57.5815C4.30078 57.2221 3.34214 56.7196 2.46895 56.0894L1.85047 57.1796C2.35825 57.7114 3.30643 58.4165 4.50249 58.9893C2.05503 63.22 0.252523 66.3293 0.144229 66.5218C-0.192688 67.1018 0.117757 67.3545 0.490772 67.1884L1.82159 66.6084C5.22686 65.1308 5.93679 64.5147 6.18466 63.0949C6.63228 60.4958 7.95107 60.0386 7.95348 60.0386Z" fill="#959595"/>
</svg>
