<svg width="48" height="48" viewBox="0 0 48 48" fill="none" xmlns="http://www.w3.org/2000/svg">
<mask id="mask0_179_322" style="mask-type:alpha" maskUnits="userSpaceOnUse" x="0" y="0" width="48" height="48">
<rect width="48" height="48" fill="#D9D9D9"/>
</mask>
<g mask="url(#mask0_179_322)">
<path d="M38.0444 40L26.3556 28.3111C25.4667 29.0815 24.4302 29.6815 23.2462 30.1111C22.0622 30.5407 20.8024 30.7556 19.4667 30.7556C16.2619 30.7556 13.5496 29.6444 11.3298 27.4222C9.10993 25.2 8 22.5185 8 19.3778C8 16.237 9.11111 13.5556 11.3333 11.3333C13.5556 9.11111 16.2444 8 19.4 8C22.5556 8 25.237 9.11111 27.4444 11.3333C29.6519 13.5556 30.7556 16.2393 30.7556 19.3844C30.7556 20.6541 30.5481 21.8815 30.1333 23.0667C29.7185 24.2519 29.0963 25.363 28.2667 26.4L40 38.0444L38.0444 40Z" fill="#111111"/>
</g>
</svg>
