<svg width="48" height="48" viewBox="0 0 48 48" fill="none" xmlns="http://www.w3.org/2000/svg">
<mask id="mask0_179_388" style="mask-type:alpha" maskUnits="userSpaceOnUse" x="0" y="0" width="48" height="48">
<rect width="48" height="48" fill="#D9D9D9"/>
</mask>
<g mask="url(#mask0_179_388)">
<path d="M12.3762 38C11.7426 38 11.1881 37.7627 10.7129 37.288C10.2376 36.8133 10 36.2596 10 35.6267V11.8937C10 11.2608 10.2376 10.707 10.7129 10.2324C11.1881 9.75773 11.7426 9.5204 12.3762 9.5204H28.4158L26.0396 11.8937H12.3762V35.6267H36.1386V21.8616L38.5148 19.4883V35.6267C38.5148 36.2596 38.2772 36.8133 37.802 37.288C37.3267 37.7627 36.7723 38 36.1386 38H12.3762ZM19.5049 28.5068V21.7824L34.6337 6.67244C34.8713 6.43511 35.1353 6.2637 35.4257 6.15822C35.7162 6.05274 36.0066 6 36.297 6C36.5875 6 36.8821 6.05933 37.181 6.178C37.4796 6.29666 37.7526 6.47466 38 6.71199L41.2871 10.0346C41.5145 10.2709 41.69 10.5317 41.8139 10.817C41.938 11.1026 42 11.3929 42 11.688C42 11.9834 41.9406 12.2827 41.8218 12.5859C41.703 12.8892 41.5247 13.1595 41.2871 13.3968L26.2376 28.5068H19.5049ZM21.8812 26.1335H25.2475L35.2673 16.1261L31.8614 12.8035L21.8812 22.7318V26.1335Z" fill="#111111"/>
</g>
</svg>
