<svg width="48" height="48" viewBox="0 0 48 48" fill="none" xmlns="http://www.w3.org/2000/svg">
<mask id="mask0_179_496" style="mask-type:alpha" maskUnits="userSpaceOnUse" x="0" y="0" width="48" height="48">
<rect width="48" height="48" fill="#D9D9D9"/>
</mask>
<g mask="url(#mask0_179_496)">
<path d="M19.5049 28.5068V21.7824L34.6337 6.67244C34.8713 6.43511 35.1353 6.2637 35.4257 6.15822C35.7162 6.05274 36.0066 6 36.297 6C36.5875 6 36.8845 6.05933 37.1881 6.178C37.4917 6.29666 37.7624 6.47466 38 6.71199L41.2871 10.0346C41.5247 10.2719 41.703 10.5356 41.8218 10.8257C41.9406 11.1158 42 11.4059 42 11.6959C42 11.986 41.9406 12.2827 41.8218 12.5859C41.703 12.8892 41.5247 13.1595 41.2871 13.3968L26.2376 28.5068H19.5049ZM36.9307 14.4648L39.6238 11.6959L36.297 8.3733L33.5644 11.1026L36.9307 14.4648ZM12.3762 38C11.7426 38 11.1881 37.7627 10.7129 37.288C10.2376 36.8133 10 36.2596 10 35.6267V11.8937C10 11.2608 10.2376 10.707 10.7129 10.2324C11.1881 9.75773 11.7426 9.5204 12.3762 9.5204H28.4158L17.1287 20.7936V30.8801H27.1089L38.5148 19.4883V35.6267C38.5148 36.2596 38.2772 36.8133 37.802 37.288C37.3267 37.7627 36.7723 38 36.1386 38H12.3762Z" fill="#111111"/>
</g>
</svg>
