<svg width="50" height="30" viewBox="0 0 50 30" fill="none" xmlns="http://www.w3.org/2000/svg">
<rect x="0.5" y="0.5" width="49" height="29" rx="14.5" stroke="#DDDDDD"/>
<path d="M24.7786 14.862V15.694H14.4826V14.862H24.7786ZM15.7046 18.736C15.7176 17.423 17.1736 16.695 19.6046 16.682C22.0356 16.695 23.4916 17.423 23.5046 18.736C23.4916 20.023 22.0356 20.751 19.6046 20.764C17.1736 20.751 15.7176 20.023 15.7046 18.736ZM15.7826 13.796V9.948H23.4786V10.78H16.7706V12.964H23.5566V13.796H15.7826ZM16.7186 18.736C16.7186 19.516 17.7976 19.971 19.6046 19.958C21.3986 19.971 22.4906 19.516 22.4906 18.736C22.4906 17.93 21.3986 17.475 19.6046 17.462C17.7976 17.475 16.7186 17.93 16.7186 18.736ZM36.014 15.72V16.526H25.692V15.72H30.372V14.524H27.044V11.768H33.7V10.598H26.992V9.792H34.688V12.522H28.032V13.718H34.948V14.524H31.334V15.72H36.014ZM26.836 18.216V17.41H34.766V20.686H33.752V18.216H26.836Z" fill="#959595"/>
</svg>
