<svg width="50" height="30" viewBox="0 0 50 30" fill="none" xmlns="http://www.w3.org/2000/svg">
<rect width="50" height="30" rx="15" fill="#00C6BE"/>
<path d="M24.6908 14.862V15.694H14.3948V14.862H24.6908ZM15.6168 18.736C15.6298 17.423 17.0858 16.695 19.5168 16.682C21.9478 16.695 23.4038 17.423 23.4168 18.736C23.4038 20.023 21.9478 20.751 19.5168 20.764C17.0858 20.751 15.6298 20.023 15.6168 18.736ZM15.6948 13.796V9.948H23.3908V10.78H16.6828V12.964H23.4688V13.796H15.6948ZM16.6308 18.736C16.6308 19.516 17.7098 19.971 19.5168 19.958C21.3108 19.971 22.4028 19.516 22.4028 18.736C22.4028 17.93 21.3108 17.475 19.5168 17.462C17.7098 17.475 16.6308 17.93 16.6308 18.736ZM35.9262 15.72V16.526H25.6042V15.72H30.2842V14.524H26.9562V11.768H33.6122V10.598H26.9042V9.792H34.6002V12.522H27.9442V13.718H34.8602V14.524H31.2462V15.72H35.9262ZM26.7482 18.216V17.41H34.6782V20.686H33.6642V18.216H26.7482Z" fill="white"/>
</svg>
