<svg width="33" height="23" viewBox="0 0 33 23" fill="none" xmlns="http://www.w3.org/2000/svg">
<path d="M3.20767 22.3332C2.49128 22.3332 1.87767 22.0753 1.36684 21.5594C0.856003 21.0439 0.600586 20.4328 0.600586 19.7261V3.27359C0.600586 2.5572 0.856003 1.94359 1.36684 1.43275C1.87767 0.921921 2.49128 0.666504 3.20767 0.666504H29.6602C30.3766 0.666504 30.9902 0.921921 31.501 1.43275C32.0118 1.94359 32.2673 2.5572 32.2673 3.27359V19.7261C32.2673 20.4328 32.0118 21.0439 31.501 21.5594C30.9902 22.0753 30.3766 22.3332 29.6602 22.3332H3.20767ZM3.20767 20.239H29.6602C29.7885 20.239 29.9061 20.1857 30.0131 20.079C30.1198 19.9721 30.1731 19.8544 30.1731 19.7261V3.27359C30.1731 3.14525 30.1198 3.02761 30.0131 2.92067C29.9061 2.814 29.7885 2.76067 29.6602 2.76067H3.20767C3.07934 2.76067 2.9617 2.814 2.85475 2.92067C2.74809 3.02761 2.69475 3.14525 2.69475 3.27359V19.7261C2.69475 19.8544 2.74809 19.9721 2.85475 20.079C2.9617 20.1857 3.07934 20.239 3.20767 20.239ZM9.5535 17.8673H23.3143V15.3248H9.5535V17.8673ZM5.02142 12.7711H7.56434V10.2286H5.02142V12.7711ZM10.1006 12.7711H12.6435V10.2286H10.1006V12.7711ZM15.1627 12.7711H17.7052V10.2286H15.1627V12.7711ZM20.2414 12.7711H22.7843V10.2286H20.2414V12.7711ZM25.3035 12.7711H27.8464V10.2286H25.3035V12.7711ZM5.02142 7.66442H7.56434V5.1215H5.02142V7.66442ZM10.1006 7.66442H12.6435V5.1215H10.1006V7.66442ZM15.1627 7.66442H17.7052V5.1215H15.1627V7.66442ZM20.2414 7.66442H22.7843V5.1215H20.2414V7.66442ZM25.3035 7.66442H27.8464V5.1215H25.3035V7.66442Z" fill="#959595"/>
</svg>
