<svg width="22" height="21" viewBox="0 0 22 21" fill="none" xmlns="http://www.w3.org/2000/svg">
<path d="M5.61597 6.45217L5.75115 5.70022C6.61294 5.8692 7.04162 6.05507 6.97403 6.37613C6.90644 6.69719 6.02997 6.60952 5.33716 6.41519C4.64435 6.22087 3.78256 5.8354 3.93464 4.99896C4.08672 4.16252 5.21042 3.83301 7.25506 3.83301H18.8357V16.1138C18.8357 16.1138 10.3798 16.1138 4.93214 16.1138" stroke="white" stroke-linecap="round" stroke-linejoin="round"/>
<path d="M3.93477 4.99902L2.22809 14.1914C2.13515 14.6815 2.15205 15.1884 2.27034 15.67L3.03074 18.7454L4.84725 16.1516C5.13451 15.746 5.32884 15.2729 5.42178 14.7828L6.97638 6.38464" stroke="white" stroke-linecap="round" stroke-linejoin="round"/>
<path d="M16.206 9.03655H15.7392L16.1759 7.61789C16.201 7.53207 16.1859 7.44119 16.1357 7.37051C16.0805 7.29983 16.0002 7.25439 15.9099 7.25439H15.137C15.0165 7.25439 14.9061 7.33517 14.871 7.45129L14.3791 9.03655H13.6212L13.1896 7.46139C13.1545 7.34022 13.0441 7.25439 12.9186 7.25439H12.1357C12.0102 7.25439 11.8998 7.34022 11.8646 7.46139L11.433 9.03655H10.6752L10.1833 7.45129C10.1482 7.33517 10.0378 7.25439 9.91734 7.25439H9.14443C9.05409 7.25439 8.97378 7.29478 8.91858 7.37051C8.86337 7.44119 8.84831 7.53207 8.87842 7.61789L9.31507 9.03655H8.84831C8.69273 9.03655 8.57227 9.16277 8.57227 9.31423V10.0564C8.57227 10.2129 8.69774 10.334 8.84831 10.334H9.7216L10.4443 12.6715C10.4794 12.7877 10.5898 12.8684 10.7103 12.8684L11.4983 12.8583C11.6187 12.8583 11.7291 12.7725 11.7643 12.6564L12.4217 10.334H12.6124L13.2699 12.6564C13.3051 12.7725 13.4105 12.8583 13.5359 12.8583L14.3239 12.8684C14.4494 12.8684 14.5548 12.7877 14.5949 12.6715L15.3176 10.334H16.1909C16.3465 10.334 16.467 10.2078 16.467 10.0564V9.31423C16.467 9.15772 16.3415 9.03655 16.1909 9.03655H16.206Z" fill="white"/>
</svg>
