<svg width="40" height="40" viewBox="0 0 40 40" fill="none" xmlns="http://www.w3.org/2000/svg">
<mask id="mask0_13_1999" style="mask-type:alpha" maskUnits="userSpaceOnUse" x="0" y="0" width="40" height="40">
<rect width="40" height="40" fill="#D9D9D9"/>
</mask>
<g mask="url(#mask0_13_1999)">
<path d="M8.44009 34.1668C7.7237 34.1668 7.11009 33.9114 6.59926 33.4006C6.08842 32.8897 5.83301 32.2761 5.83301 31.5597V8.44058C5.83301 7.72419 6.08842 7.11058 6.59926 6.59975C7.11009 6.08891 7.7237 5.8335 8.44009 5.8335H31.5593C32.2756 5.8335 32.8893 6.08891 33.4001 6.59975C33.9109 7.11058 34.1663 7.72419 34.1663 8.44058V31.5597C34.1663 32.2761 33.9109 32.8897 33.4001 33.4006C32.8893 33.9114 32.2756 34.1668 31.5593 34.1668H8.44009ZM9.65551 22.0193L16.5701 15.1047L23.4397 21.9747L30.3268 15.0877L32.0722 16.8335V8.44058C32.0722 8.29086 32.0241 8.16794 31.928 8.07183C31.8319 7.97572 31.709 7.92766 31.5593 7.92766H8.44009C8.29037 7.92766 8.16745 7.97572 8.07134 8.07183C7.97523 8.16794 7.92717 8.29086 7.92717 8.44058V20.291L9.65551 22.0193ZM8.44009 32.0727H31.5593C31.709 32.0727 31.8319 32.0246 31.928 31.9285C32.0241 31.8324 32.0722 31.7095 32.0722 31.5597V19.8077L30.3268 18.0622L23.4397 24.9489L16.5701 18.0793L9.65551 24.9831L7.92717 23.2652V31.5597C7.92717 31.7095 7.97523 31.8324 8.07134 31.9285C8.16745 32.0246 8.29037 32.0727 8.44009 32.0727ZM7.92717 32.0727V19.8077V21.9018V7.92766V32.0727Z" fill="#959595"/>
</g>
</svg>
