<svg width="25" height="25" viewBox="0 0 25 25" fill="none" xmlns="http://www.w3.org/2000/svg">
<path fill-rule="evenodd" clip-rule="evenodd" d="M12.5 25C5.5965 25 0 19.4035 0 12.5C0 5.5965 5.5965 0 12.5 0C19.4035 0 25 5.5965 25 12.5C25 19.4035 19.4035 25 12.5 25Z" fill="#231F20"/>
<path fill-rule="evenodd" clip-rule="evenodd" d="M13.955 13.3629L13.9985 13.3404C14.2635 13.2064 14.5185 13.1324 14.715 13.1324C14.8735 13.1324 14.995 13.1789 15.076 13.2704C15.1675 13.3734 15.202 13.5294 15.1775 13.7344C15.0275 15.0024 13.7725 16.2009 12.6695 16.7784C11.396 17.4449 9.9755 17.5919 9.691 17.6154C9.6745 17.6164 9.658 17.6174 9.6395 17.6174C9.664 17.5784 11.533 14.5574 13.9545 13.3624M16.8655 6.14845C16.4095 7.64445 15.286 8.60345 14.4265 9.21845C14.1985 9.38145 14.4235 9.50345 14.4295 9.73445C14.437 10.0219 13.92 10.3789 13.132 11.2419C14.637 8.32445 16.8655 6.14845 16.8655 6.14845ZM9.4475 18.0074C9.45 18.0074 9.5025 18.0059 9.595 18.0009C10.0585 17.9734 11.5455 17.8369 13.082 17.1624C13.8905 16.8074 16.191 15.4674 16.191 13.6669C16.191 12.9849 15.777 12.5944 15.0725 12.5944C13.9995 12.5944 12.702 13.4614 11.2525 14.9724C11.2155 15.0194 11.1475 14.9864 11.3345 14.6814C11.6965 14.0909 12.518 12.5834 14.316 10.8084C15.367 9.77095 14.832 9.37345 14.832 9.37345C14.832 9.37345 15.8935 8.88495 16.6925 7.84245C17.171 7.21845 17.7775 5.99445 17.513 5.66095C17.294 5.38445 16.8455 5.52445 15.8425 6.41095C14.595 7.51245 12.7045 10.7219 11.678 12.6469C11.425 13.1219 9.9495 15.6809 8.8995 17.4969C8.68859 17.4223 8.48942 17.3179 8.308 17.1869L8.1795 17.4134C8.285 17.5239 8.482 17.6704 8.7305 17.7894C8.222 18.6684 7.8475 19.3144 7.825 19.3544C7.755 19.4749 7.8195 19.5274 7.897 19.4929L8.1735 19.3724C8.881 19.0654 9.0285 18.9374 9.08 18.6424C9.173 18.1024 9.447 18.0074 9.4475 18.0074Z" fill="white"/>
</svg>
