<svg width="48" height="48" viewBox="0 0 48 48" fill="none" xmlns="http://www.w3.org/2000/svg">
<mask id="mask0_179_533" style="mask-type:alpha" maskUnits="userSpaceOnUse" x="0" y="0" width="48" height="48">
<rect width="48" height="48" fill="#D9D9D9"/>
</mask>
<g mask="url(#mask0_179_533)">
<path d="M12 40C11.34 40 10.7751 39.7649 10.3052 39.2948C9.83507 38.8249 9.6 38.26 9.6 37.6V18.28C9.14667 18.12 8.76667 17.8348 8.46 17.4244C8.15333 17.014 8 16.5392 8 16V10.4C8 9.74 8.23507 9.17493 8.7052 8.7048C9.17507 8.23493 9.74 8 10.4 8H37.6C38.26 8 38.8251 8.23493 39.2952 8.7048C39.7651 9.17493 40 9.74 40 10.4V16C40 16.5392 39.8467 17.014 39.54 17.4244C39.2333 17.8348 38.8533 18.12 38.4 18.28V37.6C38.4 38.26 38.1651 38.8249 37.6952 39.2948C37.2251 39.7649 36.66 40 36 40H12ZM12 18.4V37.6H36V18.4H12ZM10.4 16H37.6V10.4H10.4V16ZM19.2 26.4H28.8V24H19.2V26.4Z" fill="#111111"/>
</g>
</svg>
