<svg width="14" height="13" viewBox="0 0 14 13" fill="none" xmlns="http://www.w3.org/2000/svg">
<path d="M6.30371 6.02002C6.30371 6.58285 6.20215 7.1224 5.99902 7.63867C5.7959 8.15072 5.52718 8.59294 5.19287 8.96533C4.8501 9.34619 4.46289 9.64665 4.03125 9.8667C3.59961 10.0825 3.14258 10.1904 2.66016 10.1904C2.29622 10.1904 1.97461 10.1587 1.69531 10.0952C1.42025 10.036 1.18538 9.95345 0.990723 9.84766C0.791829 9.73763 0.62679 9.61491 0.495605 9.47949C0.364421 9.33984 0.245931 9.18538 0.140137 9.01611L1.77783 1.83057C1.79899 1.73324 1.81592 1.65072 1.82861 1.58301C1.84554 1.51107 1.854 1.43913 1.854 1.36719C1.854 1.21484 1.82861 1.09847 1.77783 1.01807C1.72705 0.933431 1.65511 0.869954 1.56201 0.827637C1.47314 0.789551 1.361 0.76416 1.22559 0.751465C1.09017 0.73877 0.952637 0.723958 0.812988 0.707031L0.901855 0.319824L3.25684 0.173828L3.32031 0.269043L2.35547 4.49023H2.38086C2.76172 4.15169 3.09603 3.91895 3.38379 3.79199C3.67578 3.66081 3.95931 3.59521 4.23438 3.59521C4.8776 3.59521 5.3833 3.81527 5.75146 4.25537C6.11963 4.69124 6.30371 5.27946 6.30371 6.02002ZM4.99609 6.05176C4.99609 5.82747 4.97493 5.60319 4.93262 5.37891C4.89453 5.15039 4.82894 4.95996 4.73584 4.80762C4.63851 4.64681 4.50521 4.51986 4.33594 4.42676C4.16667 4.33366 3.95719 4.28711 3.70752 4.28711C3.55941 4.28711 3.41976 4.3125 3.28857 4.36328C3.15739 4.41406 3.02197 4.48177 2.88232 4.56641C2.7596 4.64258 2.639 4.73568 2.52051 4.8457C2.40625 4.9515 2.30046 5.04671 2.20312 5.13135L1.35889 8.89551C1.37158 8.98014 1.40967 9.07324 1.47314 9.1748C1.53662 9.27637 1.61702 9.36523 1.71436 9.44141C1.83285 9.53874 1.96615 9.61279 2.11426 9.66357C2.26237 9.71436 2.42529 9.73975 2.60303 9.73975C2.93734 9.73975 3.25049 9.64242 3.54248 9.44775C3.8387 9.24886 4.09261 8.98226 4.3042 8.64795C4.53695 8.28402 4.71045 7.87777 4.82471 7.4292C4.93896 6.98063 4.99609 6.52148 4.99609 6.05176ZM11.2993 9.07959H11.2612C10.8719 9.40544 10.5016 9.66146 10.1504 9.84766C9.79915 10.0339 9.39925 10.127 8.95068 10.127C8.54443 10.127 8.22282 10.0106 7.98584 9.77783C7.74886 9.54085 7.63037 9.23193 7.63037 8.85107C7.63037 8.74951 7.63883 8.62891 7.65576 8.48926C7.67269 8.34961 7.71289 8.14225 7.77637 7.86719L8.27148 5.88672C8.31803 5.69629 8.354 5.53125 8.37939 5.3916C8.40479 5.24772 8.41748 5.11019 8.41748 4.979C8.41748 4.74202 8.37728 4.58545 8.29688 4.50928C8.2207 4.42887 8.06201 4.38867 7.8208 4.38867C7.7277 4.38867 7.60921 4.4056 7.46533 4.43945C7.32145 4.47331 7.20931 4.50081 7.12891 4.52197L7.22412 4.11572C7.5542 3.96761 7.84408 3.85547 8.09375 3.7793C8.34766 3.70312 8.55078 3.66504 8.70312 3.66504C9.04167 3.66504 9.29134 3.74121 9.45215 3.89355C9.61719 4.0459 9.69971 4.27441 9.69971 4.5791C9.69971 4.65527 9.69124 4.75895 9.67432 4.89014C9.65739 5.02132 9.632 5.15251 9.59814 5.28369L9.02051 7.60059C8.97819 7.77832 8.94222 7.94548 8.9126 8.10205C8.88298 8.25439 8.86816 8.37077 8.86816 8.45117C8.86816 8.7347 8.93587 8.95898 9.07129 9.12402C9.21094 9.28906 9.41406 9.37158 9.68066 9.37158C9.98958 9.37158 10.29 9.29541 10.582 9.14307C10.8783 8.99072 11.1554 8.78125 11.4136 8.51465L12.4673 3.7666L13.5654 3.69043L13.6416 3.78564L12.5498 8.75586C12.389 9.48372 12.1838 10.1058 11.9341 10.6221C11.6844 11.1383 11.3924 11.5552 11.0581 11.8726C10.7069 12.2069 10.3281 12.4481 9.92188 12.5962C9.51562 12.7443 9.05225 12.8184 8.53174 12.8184C8.17204 12.8184 7.88639 12.793 7.6748 12.7422C7.46322 12.6914 7.29606 12.6216 7.17334 12.5327C7.05062 12.4481 6.9681 12.3529 6.92578 12.2471C6.88346 12.1413 6.8623 12.0355 6.8623 11.9297C6.8623 11.7477 6.91732 11.5869 7.02734 11.4473C7.13737 11.3076 7.29606 11.2378 7.50342 11.2378C7.65999 11.2378 7.79329 11.2822 7.90332 11.3711C8.01335 11.46 8.10221 11.5573 8.16992 11.6631C8.24609 11.7773 8.31592 11.9064 8.37939 12.0503C8.44287 12.1942 8.49365 12.3084 8.53174 12.3931H8.68408C8.92529 12.3931 9.1792 12.3338 9.4458 12.2153C9.71663 12.0968 9.96419 11.9128 10.1885 11.6631C10.4297 11.3923 10.6455 11.0431 10.8359 10.6157C11.0306 10.1883 11.1851 9.67627 11.2993 9.07959Z" fill="#BBBBBB"/>
</svg>
